<svg xmlns="http://www.w3.org/2000/svg" viewBox="0 0 100 100" width="100" height="100">
  <g stroke="#8B6914" stroke-width="1.2">
    <path d="M50,45 C35,30 15,28 18,45 C20,55 40,52 50,45Z" fill="#F2C4C4"/>
    <path d="M50,45 C65,30 85,28 82,45 C80,55 60,52 50,45Z" fill="#F2C4C4"/>
    <path d="M50,45 C35,55 20,70 25,78 C28,72 40,58 50,45Z" fill="#e8abab"/>
    <path d="M50,45 C65,55 80,70 75,78 C72,72 60,58 50,45Z" fill="#e8abab"/>
    <ellipse cx="50" cy="45" rx="6" ry="5" fill="#e8abab" stroke="#8B6914" stroke-width="1.2"/>
  </g>
</svg>
