<svg xmlns="http://www.w3.org/2000/svg" viewBox="0 0 100 100" width="100" height="100">
  <g stroke="#8B6914" fill="none" stroke-linecap="round">
    <path d="M15,80 C30,65 50,50 85,35" stroke-width="2.5"/>
    <path d="M30,70 C28,62 32,56 38,54" stroke-width="1.5"/>
    <path d="M45,58 C48,50 44,44 40,42" stroke-width="1.5"/>
    <path d="M58,48 C56,40 60,34 66,32" stroke-width="1.5"/>
    <path d="M70,40 C73,32 69,26 65,24" stroke-width="1.5"/>
  </g>
  <g fill="#9CAF88" stroke="#8B6914" stroke-width="0.8">
    <ellipse cx="35" cy="52" rx="5" ry="8" transform="rotate(-20,35,52)"/>
    <ellipse cx="38" cy="44" rx="5" ry="8" transform="rotate(20,38,44)"/>
    <ellipse cx="62" cy="30" rx="5" ry="8" transform="rotate(-20,62,30)"/>
    <ellipse cx="63" cy="22" rx="5" ry="8" transform="rotate(20,63,22)"/>
    <ellipse cx="28" cy="60" rx="4" ry="7" transform="rotate(15,28,60)"/>
  </g>
</svg>
