<svg xmlns="http://www.w3.org/2000/svg" viewBox="0 0 100 100" width="100" height="100">
  <g stroke="#8B6914" stroke-width="1.2" fill="none">
    <path d="M20,50 Q35,42 50,50 Q65,58 80,50" fill="#F2C4C4" stroke="#8B6914"/>
    <path d="M20,50 Q35,58 50,50 Q65,42 80,50" fill="#e8abab" stroke="#8B6914"/>
    <path d="M15,45 L20,50 L15,55 Q25,52 20,50 Q25,48 15,45Z" fill="#F2C4C4" stroke="#8B6914"/>
    <path d="M85,45 L80,50 L85,55 Q75,52 80,50 Q75,48 85,45Z" fill="#F2C4C4" stroke="#8B6914"/>
    <path d="M20,50 C22,60 18,75 15,80" stroke="#F2C4C4" stroke-width="6" stroke-linecap="round"/>
    <path d="M80,50 C78,60 82,75 85,80" stroke="#F2C4C4" stroke-width="6" stroke-linecap="round"/>
    <path d="M20,50 C22,60 18,75 15,80" stroke="#8B6914" stroke-width="1.2" fill="none"/>
    <path d="M80,50 C78,60 82,75 85,80" stroke="#8B6914" stroke-width="1.2" fill="none"/>
  </g>
</svg>
