<svg xmlns="http://www.w3.org/2000/svg" viewBox="0 0 100 100" width="100" height="100">
  <g fill="none" stroke="#8B6914" stroke-width="1.5">
    <path d="M50 85 C50 85 48 70 48 60" stroke="#9CAF88" stroke-width="2"/>
    <path d="M48 68 C40 65 35 70 38 74" stroke="#9CAF88" stroke-width="1.5" fill="#9CAF88" opacity="0.5"/>
    <path d="M48 72 C56 69 61 74 58 78" stroke="#9CAF88" stroke-width="1.5" fill="#9CAF88" opacity="0.5"/>
  </g>
  <g transform="translate(50,40)">
    <ellipse cx="0" cy="0" rx="12" ry="14" fill="#F2C4C4" stroke="#8B6914" stroke-width="1"/>
    <path d="M-8,-10 C-15,-5 -16,8 -8,14 C-4,10 -6,2 -8,-10Z" fill="#F2C4C4" stroke="#8B6914" stroke-width="1"/>
    <path d="M8,-10 C15,-5 16,8 8,14 C4,10 6,2 8,-10Z" fill="#F2C4C4" stroke="#8B6914" stroke-width="1"/>
    <path d="M0,-15 C-10,-12 -14,0 -6,8 C-2,2 0,-5 0,-15Z" fill="#e8abab" stroke="#8B6914" stroke-width="1"/>
    <path d="M0,-15 C10,-12 14,0 6,8 C2,2 0,-5 0,-15Z" fill="#e8abab" stroke="#8B6914" stroke-width="1"/>
    <ellipse cx="0" cy="-2" rx="5" ry="6" fill="#d48f8f" stroke="#8B6914" stroke-width="0.8"/>
  </g>
</svg>
