<svg xmlns="http://www.w3.org/2000/svg" viewBox="0 0 100 100" width="100" height="100">
  <path d="M50 85 C50 85 50 55 50 45" stroke="#9CAF88" stroke-width="2.5" fill="none"/>
  <path d="M50 65 C42 60 36 63 39 68" stroke="#9CAF88" stroke-width="1.5" fill="#9CAF88" opacity="0.6"/>
  <path d="M50 60 C58 55 64 58 61 63" stroke="#9CAF88" stroke-width="1.5" fill="#9CAF88" opacity="0.6"/>
  <g transform="translate(50,32)">
    <path d="M0,12 C-4,5 -12,-5 -10,-15 C-8,-22 -3,-24 0,-18 C3,-24 8,-22 10,-15 C12,-5 4,5 0,12Z" fill="#F2C4C4" stroke="#8B6914" stroke-width="1.2"/>
    <path d="M0,12 C-2,5 -6,-2 -5,-12 C-4,-17 -1,-18 0,-14 C1,-18 4,-17 5,-12 C6,-2 2,5 0,12Z" fill="#e8abab" stroke="none"/>
  </g>
</svg>
